<?xml version="1.0" encoding="UTF-8"?>
<svg xmlns="http://www.w3.org/2000/svg" xmlns:xlink="http://www.w3.org/1999/xlink" width="156px" height="60px" viewBox="0 0 156 60" version="1.1">
<g id="surface1">
<path style=" stroke:none;fill-rule:nonzero;fill:rgb(0%,0%,0%);fill-opacity:1;" d="M 1.472656 59.835938 L 1.472656 51.957031 L 0.769531 51.957031 L 0.769531 59.835938 Z M 4.230469 56.695312 C 4.230469 55.71875 4.71875 54.816406 5.789062 54.816406 C 6.679688 54.816406 7.222656 55.367188 7.222656 56.316406 L 7.222656 59.835938 L 7.871094 59.835938 L 7.871094 56.421875 C 7.871094 55.792969 7.730469 54.214844 5.953125 54.214844 C 5.25 54.214844 4.628906 54.53125 4.25 55.207031 L 4.230469 55.183594 L 4.199219 54.378906 L 3.527344 54.378906 C 3.546875 54.75 3.578125 55.183594 3.578125 55.609375 L 3.578125 59.835938 L 4.230469 59.835938 Z M 9.511719 55.738281 C 9.511719 56.75 10.378906 57 11.234375 57.207031 C 12.101562 57.402344 12.957031 57.53125 12.957031 58.316406 C 12.957031 59.074219 12.230469 59.402344 11.539062 59.402344 C 10.800781 59.402344 10.085938 59.164062 10.03125 58.347656 L 9.328125 58.347656 C 9.347656 59.554688 10.433594 60 11.375 60 C 12.523438 60 13.664062 59.445312 13.664062 58.21875 C 13.664062 57.628906 13.304688 57.140625 12.742188 56.945312 C 11.265625 56.421875 10.214844 56.5 10.214844 55.695312 C 10.214844 55.054688 10.832031 54.816406 11.441406 54.816406 C 12.113281 54.816406 12.71875 55.042969 12.785156 55.726562 L 13.488281 55.726562 C 13.402344 54.574219 12.535156 54.21875 11.503906 54.21875 C 10.550781 54.21875 9.511719 54.609375 9.511719 55.738281 Z M 15.671875 58.378906 C 15.671875 59.121094 15.59375 60 16.972656 60 C 17.1875 60 17.425781 59.957031 17.632812 59.902344 L 17.632812 59.335938 C 17.460938 59.390625 17.265625 59.402344 17.070312 59.402344 C 16.570312 59.402344 16.3125 59.128906 16.320312 58.628906 L 16.320312 54.976562 L 17.558594 54.976562 L 17.558594 54.378906 L 16.320312 54.378906 L 16.320312 52.933594 L 15.671875 53.214844 L 15.671875 54.378906 L 14.585938 54.378906 L 14.585938 54.976562 L 15.671875 54.976562 Z M 18.914062 54.378906 L 18.914062 59.835938 L 19.566406 59.835938 L 19.566406 54.378906 Z M 19.621094 51.988281 L 18.863281 51.988281 L 18.863281 52.804688 L 19.621094 52.804688 Z M 21.867188 58.378906 C 21.867188 59.121094 21.792969 60 23.167969 60 C 23.386719 60 23.625 59.957031 23.828125 59.902344 L 23.828125 59.335938 C 23.65625 59.390625 23.460938 59.402344 23.265625 59.402344 C 22.765625 59.402344 22.507812 59.128906 22.519531 58.628906 L 22.519531 54.976562 L 23.753906 54.976562 L 23.753906 54.378906 L 22.519531 54.378906 L 22.519531 52.933594 L 21.867188 53.214844 L 21.867188 54.378906 L 20.785156 54.378906 L 20.785156 54.976562 L 21.867188 54.976562 Z M 28.472656 57.519531 C 28.472656 58.5 27.984375 59.402344 26.910156 59.402344 C 26.023438 59.402344 25.480469 58.847656 25.480469 57.902344 L 25.480469 54.378906 L 24.832031 54.378906 L 24.832031 57.792969 C 24.832031 58.421875 24.972656 60 26.75 60 C 27.453125 60 28.070312 59.683594 28.449219 59.011719 L 28.472656 59.03125 L 28.503906 59.835938 L 29.175781 59.835938 C 29.152344 59.46875 29.121094 59.03125 29.121094 58.609375 L 29.121094 54.378906 L 28.472656 54.378906 Z M 31.414062 58.378906 C 31.414062 59.121094 31.335938 60 32.710938 60 C 32.929688 60 33.167969 59.957031 33.375 59.902344 L 33.375 59.335938 C 33.199219 59.390625 33.003906 59.402344 32.808594 59.402344 C 32.3125 59.402344 32.050781 59.128906 32.0625 58.628906 L 32.0625 54.976562 L 33.296875 54.976562 L 33.296875 54.378906 L 32.0625 54.378906 L 32.0625 52.933594 L 31.414062 53.214844 L 31.414062 54.378906 L 30.328125 54.378906 L 30.328125 54.976562 L 31.414062 54.976562 Z M 38.625 57.109375 C 38.625 58.117188 38.101562 59.402344 36.792969 59.402344 C 35.480469 59.402344 34.960938 58.117188 34.960938 57.109375 C 34.960938 56.097656 35.480469 54.816406 36.792969 54.816406 C 38.101562 54.816406 38.625 56.097656 38.625 57.109375 Z M 36.792969 54.214844 C 35.058594 54.214844 34.257812 55.671875 34.257812 57.109375 C 34.257812 58.542969 35.058594 60 36.792969 60 C 38.527344 60 39.328125 58.542969 39.328125 57.109375 C 39.328125 55.671875 38.527344 54.214844 36.792969 54.214844 Z M 43.996094 59.835938 L 44.699219 59.835938 L 44.699219 53.054688 L 44.722656 53.054688 L 48.949219 59.835938 L 49.835938 59.835938 L 49.835938 51.988281 L 49.132812 51.988281 L 49.132812 58.890625 L 49.109375 58.890625 L 44.796875 51.988281 L 43.996094 51.988281 Z M 52.007812 58.316406 C 52.007812 56.945312 53.9375 57.117188 54.859375 57.085938 C 54.925781 58.226562 54.652344 59.402344 53.234375 59.402344 C 52.574219 59.402344 52.007812 59.054688 52.007812 58.316406 Z M 54.859375 56.488281 C 54.066406 56.53125 53.125 56.421875 52.398438 56.738281 C 51.75 57.011719 51.304688 57.574219 51.304688 58.316406 C 51.304688 59.378906 52.105469 60 53.113281 60 C 53.851562 60 54.578125 59.566406 54.816406 59.109375 L 54.847656 59.03125 L 54.871094 59.03125 L 54.890625 59.835938 L 55.5625 59.835938 C 55.542969 59.46875 55.5 59.03125 55.507812 58.609375 L 55.507812 56.019531 C 55.53125 54.769531 54.785156 54.214844 53.582031 54.214844 C 52.539062 54.214844 51.707031 54.640625 51.542969 55.761719 L 52.238281 55.761719 C 52.324219 55.019531 52.886719 54.8125 53.570312 54.8125 C 54.339844 54.8125 54.792969 55.097656 54.859375 55.988281 Z M 61.429688 56.054688 C 61.375 54.890625 60.464844 54.214844 59.347656 54.214844 C 57.734375 54.214844 56.921875 55.628906 56.921875 57.109375 C 56.921875 58.597656 57.679688 60 59.304688 60 C 60.542969 60 61.257812 59.378906 61.429688 58.128906 L 60.726562 58.128906 C 60.671875 58.878906 60.085938 59.402344 59.242188 59.402344 C 58.242188 59.402344 57.625 58.347656 57.625 57.097656 C 57.625 55.859375 58.242188 54.8125 59.242188 54.8125 C 60.140625 54.8125 60.671875 55.214844 60.726562 56.054688 Z M 62.8125 54.378906 L 62.8125 59.835938 L 63.460938 59.835938 L 63.460938 54.378906 Z M 63.515625 51.988281 L 62.757812 51.988281 L 62.757812 52.804688 L 63.515625 52.804688 Z M 69.273438 57.109375 C 69.273438 58.121094 68.753906 59.402344 67.441406 59.402344 C 66.132812 59.402344 65.609375 58.121094 65.609375 57.109375 C 65.609375 56.097656 66.132812 54.816406 67.441406 54.816406 C 68.753906 54.816406 69.273438 56.097656 69.273438 57.109375 Z M 67.441406 54.214844 C 65.707031 54.214844 64.90625 55.671875 64.90625 57.109375 C 64.90625 58.542969 65.707031 60 67.441406 60 C 69.175781 60 69.976562 58.542969 69.976562 57.109375 C 69.976562 55.671875 69.175781 54.214844 67.441406 54.214844 Z M 72.0625 56.695312 C 72.0625 55.71875 72.550781 54.816406 73.625 54.816406 C 74.511719 54.816406 75.054688 55.367188 75.054688 56.316406 L 75.054688 59.835938 L 75.703125 59.835938 L 75.703125 56.421875 C 75.703125 55.792969 75.5625 54.214844 73.785156 54.214844 C 73.082031 54.214844 72.464844 54.53125 72.085938 55.207031 L 72.0625 55.183594 L 72.03125 54.378906 L 71.359375 54.378906 C 71.378906 54.75 71.414062 55.183594 71.414062 55.609375 L 71.414062 59.835938 L 72.0625 59.835938 Z M 77.757812 58.316406 C 77.757812 56.945312 79.683594 57.121094 80.605469 57.085938 C 80.671875 58.226562 80.402344 59.402344 78.980469 59.402344 C 78.320312 59.402344 77.757812 59.054688 77.757812 58.316406 Z M 80.605469 56.488281 C 79.816406 56.53125 78.871094 56.421875 78.148438 56.738281 C 77.496094 57.011719 77.050781 57.574219 77.050781 58.316406 C 77.050781 59.378906 77.855469 60 78.863281 60 C 79.597656 60 80.324219 59.566406 80.5625 59.109375 L 80.59375 59.03125 L 80.617188 59.03125 L 80.640625 59.835938 L 81.3125 59.835938 C 81.289062 59.46875 81.246094 59.03125 81.257812 58.609375 L 81.257812 56.019531 C 81.277344 54.769531 80.53125 54.21875 79.328125 54.21875 C 78.289062 54.21875 77.453125 54.640625 77.289062 55.761719 L 77.984375 55.761719 C 78.070312 55.019531 78.632812 54.816406 79.316406 54.816406 C 80.085938 54.816406 80.542969 55.097656 80.605469 55.988281 Z M 83.699219 51.988281 L 83.050781 51.988281 L 83.050781 59.835938 L 83.699219 59.835938 Z M 92.367188 56.976562 C 92.367188 58.21875 91.933594 59.402344 90.511719 59.402344 C 89.265625 59.402344 88.972656 58.023438 88.972656 57.011719 C 88.972656 55.96875 89.375 54.816406 90.609375 54.816406 C 91.878906 54.816406 92.367188 55.871094 92.367188 56.976562 Z M 92.421875 59.835938 L 93.09375 59.835938 C 93.070312 59.46875 93.039062 59.03125 93.039062 58.609375 L 93.039062 51.988281 L 92.386719 51.988281 L 92.386719 55.183594 L 92.367188 55.207031 C 91.988281 54.566406 91.226562 54.214844 90.503906 54.214844 C 88.886719 54.214844 88.269531 55.671875 88.269531 57.085938 C 88.269531 58.457031 88.886719 60 90.503906 60 C 91.261719 60 91.921875 59.640625 92.367188 58.988281 L 92.386719 59.03125 Z M 99.339844 57.261719 C 99.339844 55.554688 98.675781 54.21875 96.855469 54.21875 C 95.242188 54.21875 94.429688 55.628906 94.429688 57.109375 C 94.429688 58.597656 95.1875 60 96.8125 60 C 98.125 60 98.9375 59.402344 99.273438 58.097656 L 98.589844 58.097656 C 98.429688 58.847656 97.789062 59.402344 97.019531 59.402344 C 95.6875 59.402344 95.15625 58.421875 95.132812 57.261719 Z M 95.15625 56.664062 C 95.242188 55.707031 95.804688 54.816406 96.867188 54.816406 C 97.996094 54.816406 98.558594 55.609375 98.632812 56.664062 Z M 109.023438 59.835938 L 109.023438 59.183594 L 104.917969 59.183594 L 104.917969 56.109375 L 108.710938 56.109375 L 108.710938 55.457031 L 104.917969 55.457031 L 104.917969 52.640625 L 108.863281 52.640625 L 108.863281 51.988281 L 104.210938 51.988281 L 104.210938 59.835938 Z M 110.503906 55.738281 C 110.503906 56.75 111.367188 57 112.226562 57.207031 C 113.09375 57.402344 113.949219 57.53125 113.949219 58.316406 C 113.949219 59.074219 113.222656 59.402344 112.527344 59.402344 C 111.792969 59.402344 111.078125 59.164062 111.023438 58.347656 L 110.316406 58.347656 C 110.339844 59.554688 111.421875 60 112.367188 60 C 113.515625 60 114.652344 59.445312 114.652344 58.21875 C 114.652344 57.628906 114.296875 57.140625 113.730469 56.945312 C 112.257812 56.421875 111.207031 56.5 111.207031 55.695312 C 111.207031 55.054688 111.824219 54.816406 112.429688 54.816406 C 113.101562 54.816406 113.710938 55.042969 113.773438 55.726562 L 114.480469 55.726562 C 114.394531 54.574219 113.527344 54.21875 112.496094 54.21875 C 111.542969 54.21875 110.503906 54.609375 110.503906 55.738281 Z M 116.660156 58.378906 C 116.660156 59.121094 116.585938 60 117.960938 60 C 118.179688 60 118.417969 59.957031 118.625 59.902344 L 118.625 59.335938 C 118.449219 59.390625 118.253906 59.402344 118.058594 59.402344 C 117.5625 59.402344 117.300781 59.128906 117.3125 58.628906 L 117.3125 54.976562 L 118.546875 54.976562 L 118.546875 54.378906 L 117.3125 54.378906 L 117.3125 52.933594 L 116.660156 53.214844 L 116.660156 54.378906 L 115.578125 54.378906 L 115.578125 54.976562 L 116.660156 54.976562 Z M 120.339844 58.316406 C 120.339844 56.945312 122.269531 57.121094 123.191406 57.085938 C 123.253906 58.226562 122.984375 59.402344 121.5625 59.402344 C 120.902344 59.402344 120.339844 59.054688 120.339844 58.316406 Z M 123.191406 56.488281 C 122.398438 56.53125 121.457031 56.421875 120.730469 56.738281 C 120.078125 57.011719 119.636719 57.574219 119.636719 58.316406 C 119.636719 59.378906 120.4375 60 121.445312 60 C 122.183594 60 122.90625 59.566406 123.148438 59.109375 L 123.179688 59.03125 L 123.199219 59.03125 L 123.222656 59.835938 L 123.894531 59.835938 C 123.871094 59.46875 123.828125 59.03125 123.839844 58.609375 L 123.839844 56.019531 C 123.863281 54.769531 123.113281 54.21875 121.910156 54.21875 C 120.871094 54.21875 120.035156 54.640625 119.875 55.761719 L 120.566406 55.761719 C 120.652344 55.019531 121.21875 54.816406 121.898438 54.816406 C 122.667969 54.816406 123.125 55.097656 123.191406 55.988281 Z M 129.347656 56.976562 C 129.347656 58.21875 128.914062 59.402344 127.496094 59.402344 C 126.25 59.402344 125.957031 58.023438 125.957031 57.011719 C 125.957031 55.96875 126.359375 54.816406 127.59375 54.816406 C 128.863281 54.816406 129.347656 55.871094 129.347656 56.976562 Z M 129.402344 59.835938 L 130.074219 59.835938 C 130.054688 59.46875 130.019531 59.03125 130.019531 58.609375 L 130.019531 51.988281 L 129.371094 51.988281 L 129.371094 55.183594 L 129.347656 55.207031 C 128.96875 54.566406 128.210938 54.214844 127.484375 54.214844 C 125.871094 54.214844 125.253906 55.671875 125.253906 57.085938 C 125.253906 58.457031 125.871094 60 127.484375 60 C 128.242188 60 128.90625 59.640625 129.347656 58.988281 L 129.371094 59.03125 Z M 132.398438 59.835938 L 132.398438 54.378906 L 131.75 54.378906 L 131.75 59.835938 Z M 132.496094 52.152344 L 131.511719 53.707031 L 131.988281 53.707031 L 133.363281 52.152344 Z M 134.050781 55.738281 C 134.050781 56.75 134.917969 57 135.773438 57.207031 C 136.640625 57.402344 137.496094 57.53125 137.496094 58.316406 C 137.496094 59.074219 136.769531 59.402344 136.078125 59.402344 C 135.339844 59.402344 134.625 59.164062 134.570312 58.347656 L 133.867188 58.347656 C 133.886719 59.554688 134.972656 60 135.914062 60 C 137.0625 60 138.199219 59.445312 138.199219 58.21875 C 138.199219 57.628906 137.84375 57.140625 137.28125 56.945312 C 135.804688 56.421875 134.753906 56.5 134.753906 55.695312 C 134.753906 55.054688 135.371094 54.816406 135.980469 54.816406 C 136.652344 54.816406 137.257812 55.042969 137.324219 55.726562 L 138.027344 55.726562 C 137.941406 54.574219 137.074219 54.21875 136.042969 54.21875 C 135.089844 54.21875 134.050781 54.609375 134.050781 55.738281 Z M 140.210938 58.378906 C 140.210938 59.121094 140.132812 60 141.511719 60 C 141.726562 60 141.964844 59.957031 142.171875 59.902344 L 142.171875 59.335938 C 141.996094 59.390625 141.804688 59.402344 141.609375 59.402344 C 141.109375 59.402344 140.847656 59.128906 140.859375 58.628906 L 140.859375 54.976562 L 142.09375 54.976562 L 142.09375 54.378906 L 140.859375 54.378906 L 140.859375 52.933594 L 140.210938 53.214844 L 140.210938 54.378906 L 139.125 54.378906 L 139.125 54.976562 L 140.210938 54.976562 Z M 143.453125 54.378906 L 143.453125 59.835938 L 144.105469 59.835938 L 144.105469 54.378906 Z M 144.160156 51.988281 L 143.398438 51.988281 L 143.398438 52.804688 L 144.160156 52.804688 Z M 150.078125 56.054688 C 150.027344 54.890625 149.117188 54.21875 148 54.21875 C 146.382812 54.21875 145.570312 55.628906 145.570312 57.109375 C 145.570312 58.597656 146.332031 60 147.957031 60 C 149.191406 60 149.90625 59.378906 150.078125 58.128906 L 149.375 58.128906 C 149.320312 58.878906 148.734375 59.402344 147.890625 59.402344 C 146.894531 59.402344 146.277344 58.347656 146.277344 57.097656 C 146.277344 55.859375 146.894531 54.816406 147.890625 54.816406 C 148.789062 54.816406 149.320312 55.21875 149.375 56.054688 Z M 151.675781 58.316406 C 151.675781 56.945312 153.605469 57.121094 154.527344 57.085938 C 154.59375 58.226562 154.320312 59.402344 152.902344 59.402344 C 152.242188 59.402344 151.675781 59.054688 151.675781 58.316406 Z M 154.527344 56.488281 C 153.734375 56.53125 152.792969 56.421875 152.066406 56.738281 C 151.417969 57.011719 150.972656 57.574219 150.972656 58.316406 C 150.972656 59.378906 151.773438 60 152.78125 60 C 153.519531 60 154.246094 59.566406 154.484375 59.109375 L 154.515625 59.03125 L 154.539062 59.03125 L 154.558594 59.835938 L 155.230469 59.835938 C 155.210938 59.46875 155.167969 59.03125 155.175781 58.609375 L 155.175781 56.019531 C 155.199219 54.769531 154.453125 54.21875 153.25 54.21875 C 152.207031 54.21875 151.375 54.640625 151.210938 55.761719 L 151.90625 55.761719 C 151.992188 55.019531 152.554688 54.816406 153.238281 54.816406 C 154.007812 54.816406 154.460938 55.097656 154.527344 55.988281 Z M 154.527344 56.488281 "/>
<path style=" stroke:none;fill-rule:evenodd;fill:rgb(64.705884%,0%,22.745098%);fill-opacity:1;" d="M 7.714844 44.140625 L 7.714844 8.808594 L 0 8.808594 L 0 44.140625 Z M 14.296875 44.148438 L 21.71875 44.148438 L 21.71875 18.453125 L 41.804688 44.148438 L 50.394531 44.148438 L 50.394531 8.816406 L 43.261719 8.816406 L 43.261719 34.953125 L 22.882812 8.816406 L 14.296875 8.816406 Z M 88.617188 3.625 L 88.617188 0 L 54.765625 0 L 54.765625 3.625 Z M 63.417969 23.464844 L 80.4375 23.464844 C 80.4375 23.464844 81.199219 9.921875 72.355469 9.824219 C 62.847656 9.730469 63.417969 23.464844 63.417969 23.464844 Z M 73.972656 45.210938 C 73.972656 45.210938 81.863281 46.261719 87.761719 36.914062 L 85.859375 35.484375 C 85.859375 35.484375 81.769531 42.445312 75.019531 42.445312 C 68.363281 42.445312 63.417969 37.292969 63.417969 26.039062 L 88.234375 26.039062 C 88.234375 26.039062 88.996094 15.832031 81.578125 10.492188 C 74.636719 5.53125 66.9375 7.632812 63.320312 10.300781 C 63.320312 10.300781 55.144531 16.214844 55.144531 25.65625 C 55.144531 35.101562 61.800781 45.210938 73.972656 45.210938 Z M 73.972656 45.210938 "/>
</g>
</svg>
